# xmcd CD database file
#
# Track frame offsets:
#	182
#	12172
#	25612
#	37497
#	50205
#	63352
#	77877
#	91112
#	104557
#	115977
#	128730
#	141860
#	154080
#	167627
#	179927
#	192132
#	205487
#	218487
#	229977
#	239662
#	247832
#	260867
#	274437
#
# Disc length: 3855 seconds
#
# Revision: 4
# Processed by: cddbd v1.4PL0 Copyright (c) Steve Scherf et al.
# Submitted via: CDex 1.40Release
#
DISCID=5e0f0d17
DTITLE=Ruth Brown - Rockin' in Rhythm - The Best of Ruth Brown
DYEAR=1900
DGENRE=
TTITLE0=So Long
TTITLE1=Teardrops From My Eyes
TTITLE2=I'll Wait For You
TTITLE3=I Know
TTITLE4=Shine On (Big Bright Moon, Shine On)
TTITLE5=5-10-15 Hours
TTITLE6=Daddy Daddy
TTITLE7=(Mama) He Treats Your Daughter Mean
TTITLE8=Wild Wild Young Men
TTITLE9=Mend Your Ways
TTITLE10=Oh What A Dream
TTITLE11=Mambo Baby
TTITLE12=I Can See Everybody's Baby
TTITLE13=As Long As I'm Moving
TTITLE14=It's Love Baby (24 Hours Of The Day)
TTITLE15=Love Has Joined Us Together
TTITLE16=I Want To Do More
TTITLE17=Sweet Baby Of Mine
TTITLE18=Lucky Lips
TTITLE19=(20)This Little Girl's Gone Rockin'
TTITLE20=I Don't Know
TTITLE21=(Mama) He Treats Your Daughter Mean (Live)
TTITLE22=Oh What A Dream (Live)
EXTD=Rhino\nR2 72450\n\nThis Compilation (p) 1996 Atlantic Recording Corp.\n(c) 1996 Rhino Records, Inc.
EXTT0=
EXTT1=
EXTT2=
EXTT3=
EXTT4=
EXTT5=
EXTT6=
EXTT7=
EXTT8=
EXTT9=
EXTT10=
EXTT11=
EXTT12=
EXTT13=
EXTT14=
EXTT15=
EXTT16=
EXTT17=
EXTT18=
EXTT19=
EXTT20=
EXTT21=
EXTT22=
PLAYORDER=
